PathFileType	4	(X/Y/Z)	/tmp/tmpjnq7zxqp/Me/MarkerData/jogging04_segment_0.trc
DataRate	CameraRate	NumFrames	NumMarkers	Units	OrigDataRate	OrigDataStartFrame	OrigNumFrames
100.091	100.091	9	39	m	100.091	962	1100
Frame#	Time	C7			CLAV			LANK			LASI			LBHD			LELB			LFHD			LFIN			LFRM			LHEE			LKNE			LPSI			LSHO			LTHI			LTIB			LTOE			LUPA			LWRA			LWRB			RANK			RASI			RBAK			RBHD			RELB			RFHD			RFIN			RFRM			RHEE			RKNE			RPSI			RSHO			RTHI			RTIB			RTOE			RUPA			RWRA			RWRB			STRN			T10		
		X1	Y1	Z1	X2	Y2	Z2	X3	Y3	Z3	X4	Y4	Z4	X5	Y5	Z5	X6	Y6	Z6	X7	Y7	Z7	X8	Y8	Z8	X9	Y9	Z9	X10	Y10	Z10	X11	Y11	Z11	X12	Y12	Z12	X13	Y13	Z13	X14	Y14	Z14	X15	Y15	Z15	X16	Y16	Z16	X17	Y17	Z17	X18	Y18	Z18	X19	Y19	Z19	X20	Y20	Z20	X21	Y21	Z21	X22	Y22	Z22	X23	Y23	Z23	X24	Y24	Z24	X25	Y25	Z25	X26	Y26	Z26	X27	Y27	Z27	X28	Y28	Z28	X29	Y29	Z29	X30	Y30	Z30	X31	Y31	Z31	X32	Y32	Z32	X33	Y33	Z33	X34	Y34	Z34	X35	Y35	Z35	X36	Y36	Z36	X37	Y37	Z37	X38	Y38	Z38	X39	Y39	Z39

963	9.61125	-0.167936	1.47643	0.063416	-0.329982	1.3942	0.0402638	0.165915	0.156182	0.138436	-0.194841	0.988916	0.194526	-0.245257	1.60591	0.146516	-0.315726	1.11734	0.300442	-0.355657	1.67445	0.122556	-0.522061	1.24304	0.0919793	-0.415886	1.11489	0.184245	0.249884	0.16261	0.0902332	-0.0794136	0.476237	0.163335	-0.0712967	1.04688	0.0663348	-0.251374	1.45206	0.225798	-0.119814	0.660321	0.196493	0.0789946	0.28499	0.167602	0.0604614	0.062328	0.0582709	-0.304632	1.28832	0.298853	-0.427661	1.19833	0.116262	-0.48096	1.15165	0.130474	-0.261879	0.131324	-0.0713028	-0.206405	1.00924	-0.114245	-0.0917986	1.37216	-0.0386486	-0.225486	1.61238	-0.00124287	-0.0265	1.24639	-0.228927	-0.336065	1.6697	-0.00564988	-0.293171	1.06346	-0.158774	-0.0618758	1.16696	-0.21632	-0.19405	0.0808102	-0.00863222	-0.335241	0.543732	-0.0876148	-0.0683646	1.04243	0.00217361	-0.228509	1.47377	-0.113767	-0.248633	0.859302	-0.141527	-0.291597	0.414883	-0.114931	-0.425262	0.112774	-0.0215508	-0.0882623	1.31229	-0.213538	-0.193638	1.11201	-0.129158	-0.187295	1.0595	-0.177655	-0.357249	1.23057	0.0351736	-0.106635	1.25459	0.069369
964	9.62125	-0.168533	1.48075	0.0622037	-0.330819	1.40039	0.0380038	0.17562	0.163337	0.139561	-0.198678	0.994284	0.193332	-0.245573	1.61009	0.144555	-0.320249	1.12443	0.298814	-0.356041	1.67844	0.119856	-0.520656	1.25085	0.0850537	-0.417199	1.12222	0.179901	0.258786	0.174618	0.091404	-0.0708596	0.483239	0.162209	-0.0759992	1.05433	0.0662223	-0.254697	1.45807	0.223124	-0.115951	0.666627	0.194793	0.088514	0.292502	0.167808	0.0774916	0.0628608	0.0587934	-0.308619	1.29553	0.296562	-0.427378	1.20546	0.111628	-0.4812	1.15924	0.124913	-0.289083	0.128552	-0.0703092	-0.208174	1.01339	-0.114147	-0.0927278	1.37773	-0.0370167	-0.225249	1.61623	-0.00321517	-0.02274	1.25403	-0.227469	-0.335868	1.67339	-0.00822738	-0.289876	1.06937	-0.161722	-0.057912	1.17413	-0.215663	-0.225459	0.0723899	-0.00795218	-0.327742	0.545538	-0.0867566	-0.0724484	1.04961	0.00257013	-0.227979	1.4783	-0.114118	-0.247336	0.863161	-0.142744	-0.293437	0.414399	-0.114804	-0.453115	0.12482	-0.0195167	-0.085385	1.31967	-0.212608	-0.190864	1.11823	-0.130488	-0.183623	1.06577	-0.178811	-0.36023	1.23761	0.0332969	-0.108437	1.2609	0.0709148
965	9.63124	-0.169059	1.48407	0.0608439	-0.331696	1.40559	0.0358625	0.185034	0.170807	0.140785	-0.20243	0.998851	0.192132	-0.245855	1.61331	0.142399	-0.324079	1.13043	0.29733	-0.356255	1.68163	0.117171	-0.518828	1.25702	0.0784399	-0.418333	1.12812	0.17619	0.267232	0.186798	0.0929373	-0.0640573	0.489174	0.161214	-0.0806119	1.06086	0.065725	-0.257488	1.46317	0.220449	-0.11328	0.671958	0.193413	0.097125	0.299478	0.168234	0.0937113	0.0639804	0.0590705	-0.311917	1.30168	0.294527	-0.426719	1.21094	0.107255	-0.481069	1.16535	0.119924	-0.31429	0.127885	-0.0692303	-0.210196	1.01646	-0.113994	-0.0939081	1.3823	-0.0355577	-0.225005	1.61902	-0.00528076	-0.0196745	1.26034	-0.226311	-0.335572	1.67616	-0.0107874	-0.287462	1.07444	-0.164415	-0.0547205	1.18003	-0.215247	-0.25469	0.0668873	-0.00726473	-0.320102	0.545902	-0.0857731	-0.0761655	1.05574	0.00269446	-0.227744	1.48184	-0.114457	-0.245925	0.865282	-0.144261	-0.295461	0.413477	-0.114777	-0.477663	0.137323	-0.0169742	-0.0830063	1.32597	-0.211897	-0.188972	1.12358	-0.131766	-0.180912	1.07103	-0.179882	-0.363381	1.24366	0.031965	-0.110252	1.26619	0.0722866
966	9.64123	-0.169513	1.48635	0.059386	-0.332649	1.40965	0.0338477	0.194195	0.178575	0.142069	-0.205992	1.00249	0.1908	-0.246106	1.61559	0.140204	-0.327208	1.1352	0.296016	-0.356304	1.68405	0.114483	-0.516633	1.26141	0.0721925	-0.419398	1.13244	0.17314	0.27536	0.199082	0.094751	-0.0591918	0.493608	0.160373	-0.0846107	1.06611	0.0650753	-0.259647	1.46729	0.217844	-0.111823	0.67608	0.192223	0.104885	0.305939	0.168822	0.10904	0.0658604	0.0592881	-0.314539	1.30663	0.292782	-0.42573	1.21468	0.103202	-0.480706	1.16983	0.11554	-0.336791	0.128921	-0.068222	-0.212344	1.01845	-0.113895	-0.095303	1.38568	-0.034359	-0.224837	1.62079	-0.0074038	-0.0173521	1.26511	-0.225522	-0.335214	1.67811	-0.0133284	-0.286012	1.07859	-0.166827	-0.0523503	1.18457	-0.215158	-0.280494	0.0641039	-0.00675444	-0.312976	0.544895	-0.0850424	-0.0798631	1.06077	0.00262015	-0.2278	1.48435	-0.114895	-0.24436	0.865551	-0.145871	-0.297794	0.412455	-0.114822	-0.498438	0.149644	-0.0137386	-0.0810798	1.33111	-0.211477	-0.187839	1.12782	-0.133048	-0.179221	1.07522	-0.180985	-0.366412	1.24818	0.0307631	-0.11208	1.27044	0.0734728
967	9.65122	-0.169947	1.48762	0.0578773	-0.333711	1.41253	0.031961	0.203069	0.18652	0.14328	-0.209349	1.00515	0.189415	-0.246297	1.61696	0.138005	-0.329587	1.13859	0.294913	-0.356184	1.68573	0.111825	-0.514169	1.26384	0.0663693	-0.420246	1.13513	0.170671	0.283098	0.211403	0.0967799	-0.0562874	0.49625	0.159663	-0.0877973	1.06994	0.0645943	-0.261202	1.47034	0.215382	-0.111812	0.678723	0.191146	0.1117	0.311761	0.169611	0.123387	0.0683271	0.0595331	-0.316539	1.31029	0.291356	-0.424465	1.21658	0.0995054	-0.480105	1.17251	0.111768	-0.356	0.130977	-0.067545	-0.214412	1.01938	-0.113978	-0.0968208	1.38766	-0.0335008	-0.224787	1.6216	-0.00959787	-0.0157763	1.26826	-0.225204	-0.334869	1.67933	-0.0159326	-0.285576	1.08179	-0.168681	-0.0508953	1.18765	-0.215439	-0.301748	0.0631856	-0.00670048	-0.307122	0.542665	-0.0848581	-0.0835383	1.06501	0.00239306	-0.228017	1.48576	-0.115488	-0.242647	0.863983	-0.147275	-0.300101	0.411655	-0.114764	-0.514984	0.160806	-0.00995687	-0.0796399	1.3349	-0.211393	-0.187465	1.13081	-0.134373	-0.178579	1.07819	-0.182217	-0.369149	1.25099	0.029592	-0.11391	1.27357	0.0744784
968	9.66121	-0.170411	1.48795	0.0563071	-0.334833	1.41414	0.0301714	0.211576	0.194585	0.144329	-0.212435	1.00685	0.188226	-0.246454	1.61748	0.135723	-0.331135	1.14052	0.294043	-0.355972	1.6867	0.109205	-0.511607	1.26409	0.0610454	-0.420267	1.13621	0.168658	0.290435	0.22368	0.099005	-0.0554446	0.497082	0.15904	-0.0903808	1.07253	0.0644087	-0.262352	1.47231	0.213128	-0.113362	0.679636	0.190132	0.117541	0.317012	0.17015	0.136683	0.0709594	0.0598889	-0.317953	1.3125	0.290244	-0.423002	1.2166	0.096261	-0.479209	1.17325	0.108613	-0.370781	0.132953	-0.0669502	-0.216308	1.01919	-0.114154	-0.0983621	1.3882	-0.0330422	-0.224777	1.62154	-0.0118584	-0.0150114	1.26971	-0.225459	-0.334531	1.67977	-0.0185004	-0.286203	1.08391	-0.170295	-0.0504299	1.18915	-0.216164	-0.317683	0.062739	-0.00737763	-0.303353	0.539478	-0.0852822	-0.0872004	1.06842	0.00200252	-0.228394	1.48597	-0.116375	-0.240899	0.860788	-0.14822	-0.302239	0.411192	-0.11463	-0.526628	0.169584	-0.00590346	-0.0787454	1.33713	-0.211691	-0.187858	1.13253	-0.135756	-0.179004	1.07991	-0.183625	-0.371433	1.25204	0.0284143	-0.115741	1.27556	0.0752739
969	9.6712	-0.170964	1.48738	0.0546382	-0.335942	1.4144	0.028494	0.219666	0.202741	0.145453	-0.215048	1.00739	0.187165	-0.246607	1.61719	0.133457	-0.331774	1.14098	0.29342	-0.355703	1.6869	0.106622	-0.509145	1.26201	0.0563014	-0.419366	1.13557	0.167087	0.297251	0.235745	0.101296	-0.0566919	0.49624	0.158481	-0.0925468	1.0739	0.0643107	-0.262963	1.47299	0.211147	-0.116378	0.678841	0.189287	0.122313	0.321748	0.170674	0.149001	0.0732873	0.060274	-0.318754	1.31318	0.289353	-0.421348	1.21468	0.0934965	-0.477975	1.17189	0.106065	-0.380135	0.133839	-0.0666129	-0.217848	1.0179	-0.114353	-0.0998342	1.38727	-0.0329923	-0.224804	1.62066	-0.0141594	-0.0151012	1.26937	-0.22636	-0.334245	1.67942	-0.0210605	-0.287873	1.08488	-0.171728	-0.0509726	1.18899	-0.217388	-0.327378	0.06191	-0.00850428	-0.302287	0.535905	-0.0859397	-0.0902842	1.07049	0.00148687	-0.228967	1.48491	-0.117707	-0.239381	0.856312	-0.148584	-0.304211	0.410805	-0.114566	-0.532978	0.174655	-0.00194767	-0.0785815	1.33746	-0.212367	-0.189141	1.13291	-0.137204	-0.180507	1.08033	-0.185212	-0.373093	1.25142	0.0272839	-0.117578	1.27638	0.0758183
970	9.68119	-0.171659	1.486	0.0528504	-0.336964	1.41326	0.0269277	0.227205	0.210788	0.146633	-0.217069	1.00671	0.186283	-0.246726	1.61609	0.131214	-0.331414	1.13998	0.293057	-0.355423	1.68631	0.104095	-0.506941	1.2575	0.05224	-0.417735	1.13309	0.165979	0.303292	0.247463	0.103431	-0.0600247	0.493742	0.158004	-0.0939711	1.07372	0.0642261	-0.263049	1.47225	0.20953	-0.120555	0.676517	0.188543	0.125734	0.325914	0.171093	0.160638	0.074889	0.0607631	-0.318889	1.31231	0.288569	-0.419632	1.21089	0.0913915	-0.476364	1.16832	0.10411	-0.383698	0.132883	-0.0665264	-0.218836	1.01557	-0.114665	-0.101154	1.38496	-0.0333765	-0.224845	1.61896	-0.0164313	-0.0160667	1.26719	-0.227889	-0.334014	1.67828	-0.0236038	-0.290589	1.08473	-0.173013	-0.0525989	1.18712	-0.219073	-0.330472	0.0601516	-0.00966306	-0.303785	0.532838	-0.0860841	-0.092306	1.07074	0.000958596	-0.229823	1.48263	-0.119597	-0.238372	0.850884	-0.148398	-0.305745	0.409783	-0.114601	-0.534443	0.175112	0.001499	-0.0792544	1.33576	-0.213539	-0.191361	1.13196	-0.138755	-0.18324	1.07937	-0.186795	-0.373964	1.24947	0.0264038	-0.119367	1.27598	0.0759471
971	9.69118	-0.172462	1.48383	0.0508944	-0.337813	1.41075	0.0254868	0.233871	0.218494	0.147837	-0.218411	1.00485	0.185619	-0.246863	1.61418	0.128892	-0.329918	1.13766	0.292908	-0.355137	1.68486	0.101633	-0.505091	1.25049	0.0489279	-0.415504	1.12868	0.165371	0.308057	0.258936	0.105251	-0.0651641	0.489658	0.157698	-0.0944302	1.07165	0.0640139	-0.262735	1.47011	0.208323	-0.125602	0.672947	0.187832	0.127874	0.329359	0.171749	0.172091	0.0757326	0.0613717	-0.318346	1.30997	0.287837	-0.417868	1.20526	0.0899024	-0.474313	1.16251	0.102769	-0.381847	0.129592	-0.0665417	-0.219241	1.0122	-0.115212	-0.102303	1.38139	-0.0342461	-0.224891	1.61637	-0.0186406	-0.0179078	1.26314	-0.230086	-0.333762	1.67625	-0.0260375	-0.294397	1.08347	-0.174235	-0.0552684	1.18347	-0.221231	-0.327201	0.057051	-0.0105721	-0.307137	0.530386	-0.085173	-0.0929662	1.06867	0.000266549	-0.230835	1.47928	-0.121888	-0.23823	0.844743	-0.147835	-0.306503	0.407486	-0.114654	-0.531735	0.170864	0.00399377	-0.0806698	1.33201	-0.215437	-0.19449	1.12968	-0.14041	-0.187173	1.07701	-0.188383	-0.373944	1.2466	0.025828	-0.120956	1.27433	0.0754064
